<!-- Generated by IcoMoon.io -->
<svg version="1.1" xmlns="http://www.w3.org/2000/svg" width="14" height="15" viewBox="0 0 384 448">
<title></title>
<g id="icomoon-ignore">
</g>
<path fill="#ffffff" d="M59.251 353.499h57.75v-173.499h-57.75v173.499zM120.748 126.501c-0.251-17-12.5-30-32.247-30s-32.75 13-32.75 30c0 16.499 12.5 30 32.001 30h0.251c20.25 0 32.75-13.502 32.75-30zM266.998 353.499h57.75v-99.503c0-53.25-28.499-78.001-66.499-78.001-30.998 0-44.747 17.25-52.252 29.249h0.503v-25.249h-57.75s0.749 16.253 0 173.499v0h57.75v-97c0-5.002 0.251-10.252 1.752-14 4.251-10.252 13.75-21 29.748-21 20.752 0 28.997 15.75 28.997 39.25v92.748zM384.003 103.999v240c0 39.75-32.247 72-72 72h-240c-39.749 0-72-32.247-72-72v-240c0-39.749 32.247-72 72-72h240c39.75 0 72 32.247 72 72z"></path>
</svg>
