<!-- Generated by IcoMoon.io -->
<svg version="1.1" xmlns="http://www.w3.org/2000/svg" width="15" height="15" viewBox="0 0 384 448">
<title></title>
<g id="icomoon-ignore">
</g>
<path fill="#ffffff" d="M384 224c0 106-86 192-192 192-19 0-37-2.75-54.5-8 7.25-11.5 15.5-26.25 19.5-41 0 0 2.25-8.5 13.5-52.75 6.5 12.75 26 24 46.75 24 61.75 0 103.75-56.25 103.75-131.75 0-56.75-48.25-110-121.75-110-91 0-137 65.5-137 120 0 33 12.5 62.5 39.25 73.5 4.25 1.75 8.25 0 9.5-5 1-3.25 3-11.75 4-15.25 1.25-5 0.75-6.5-2.75-10.75-7.75-9.25-12.75-21-12.75-37.75 0-48.5 36.25-92 94.5-92 51.5 0 80 31.5 80 73.75 0 55.25-24.5 102-61 102-20 0-35-16.5-30.25-37 5.75-24.25 17-50.5 17-68 0-15.75-8.5-29-26-29-20.5 0-37 21.25-37 49.75 0 0 0 18.25 6.25 30.5-21 89-24.75 104.5-24.75 104.5-3.5 14.5-3.75 30.75-3.25 44.25-67.75-29.75-115-97.25-115-176 0-106 86-192 192-192s192 86 192 192z"></path>
</svg>
