<!-- Generated by IcoMoon.io -->
<svg version="1.1" xmlns="http://www.w3.org/2000/svg" width="67" height="61" viewBox="0 0 448 448">
<title></title>
<g id="icomoon-ignore">
</g>
<path fill="#e8e8e8" d="M224 96c-104 0-192 58.5-192 128 0 37.25 25 72.75 68.25 97.25l21.75 12.5-6.75 24c-4.75 17.75-11 31.5-17.5 43 25.25-10.5 48.25-24.75 68.75-42.75l10.75-9.5 14.25 1.5c10.75 1.25 21.75 2 32.5 2 104 0 192-58.5 192-128s-88-128-192-128zM448 224c0 88.5-100.25 160-224 160-12.25 0-24.5-0.75-36.25-2-32.75 29-71.75 49.5-115 60.5-9 2.5-18.75 4.25-28.5 5.5h-1.25c-5 0-9.5-4-10.75-9.5v-0.25c-1.25-6.25 3-10 6.75-14.5 15.75-17.75 33.75-32.75 45.5-74.5-51.5-29.25-84.5-74.5-84.5-125.25 0-88.5 100.25-160 224-160v0c123.75 0 224 71.5 224 160z"></path>
</svg>
